# xmcd CD database file
#
# Track frame offsets:
#	150
#	16089
#	30848
#	46963
#	63291
#	80523
#	96034
#	107809
#	123264
#	138406
#	150876
#	167079
#	180354
#	192906
#	202054
#	220619
#	236912
#	250453
#	253240
#	261134
#	272127
#	285589
#	301665
#	315185
#	329868
#	344406
#
# Disc length: 4715 seconds
#
# Revision: 0
# Processed by: cddbd v1.4PL0 Copyright (c) Steve Scherf et al.
# Submitted via: CDex 1.50Beta7
#
DISCID=6912691a
DTITLE=Stan Kenton - Complete Capitol Studio Transcriptions 2
DYEAR=1900
DGENRE=Jazz
TTITLE0=Blue Music
TTITLE1=Body And Soul
TTITLE2=We'll Be Together Again
TTITLE3=Easy Street
TTITLE4=On The Sunny Side Of The Street
TTITLE5=I surrender Dear
TTITLE6=Begin The begin
TTITLE7=Two Moose In A Caboose
TTITLE8=Solitude
TTITLE9=No Baby, Nobody But You
TTITLE10=Never Too Late To Pray
TTITLE11=Tea For Two
TTITLE12=One Twenty
TTITLE13=Don't Blame Me
TTITLE14=Intermission Riff
TTITLE15=It Ain't Necessarily So
TTITLE16=I Never Thuught I'd Sing The Blues
TTITLE17=Artistry In Rhythm - Opening Theme
TTITLE18=Artistry In Rhythm - Closing Theme
TTITLE19=Who's Got A Tent For Rent
TTITLE20=I Got The Sun In The Morning
TTITLE21=Peg O' My Heat
TTITLE22=Come Rain Or Come Shine
TTITLE23=They Say It's Wonderful
TTITLE24=He's Funny That Way
TTITLE25=Lover
EXTD=
EXTT0=
EXTT1=
EXTT2=
EXTT3=
EXTT4=
EXTT5=
EXTT6=
EXTT7=
EXTT8=
EXTT9=
EXTT10=
EXTT11=
EXTT12=
EXTT13=
EXTT14=
EXTT15=
EXTT16=
EXTT17=
EXTT18=
EXTT19=
EXTT20=
EXTT21=
EXTT22=
EXTT23=
EXTT24=
EXTT25=
PLAYORDER=
